<?xml version="1.0" standalone="no"?><!DOCTYPE svg PUBLIC "-//W3C//DTD SVG 1.1//EN" "http://www.w3.org/Graphics/SVG/1.1/DTD/svg11.dtd"><svg t="1711775572939" class="icon" viewBox="0 0 1024 1024" version="1.1" xmlns="http://www.w3.org/2000/svg" p-id="6464" xmlns:xlink="http://www.w3.org/1999/xlink" width="200" height="200"><path d="M684.8 236.8l100.266667 102.4c2.133333 2.133333 4.266667 6.4 4.266666 10.666667s-2.133333 6.4-4.266666 10.666666l-151.466667 151.466667 151.466667 151.466667c2.133333 2.133333 4.266667 6.4 4.266666 10.666666s-2.133333 8.533333-4.266666 10.666667l-100.266667 100.266667c-2.133333 2.133333-6.4 4.266667-10.666667 4.266666s-6.4-2.133333-10.666666-4.266666l-151.466667-151.466667-151.466667 151.466667c-2.133333 2.133333-6.4 4.266667-10.666666 4.266666s-8.533333-2.133333-10.666667-4.266666l-100.266667-100.266667c-2.133333-2.133333-4.266667-6.4-4.266666-10.666667s2.133333-6.4 4.266666-10.666666l151.466667-151.466667-151.466667-151.466667c-2.133333-2.133333-4.266667-6.4-4.266666-10.666666s2.133333-8.533333 4.266666-10.666667l100.266667-100.266667c2.133333-2.133333 6.4-4.266667 10.666667-4.266666s6.4 2.133333 10.666666 4.266666l151.466667 151.466667 151.466667-151.466667c2.133333-2.133333 6.4-4.266667 10.666666-4.266666 4.266667-2.133333 8.533333 0 10.666667 2.133333z" p-id="6465" fill="#707070"></path></svg>