<?xml version="1.0" standalone="no"?><!DOCTYPE svg PUBLIC "-//W3C//DTD SVG 1.1//EN" "http://www.w3.org/Graphics/SVG/1.1/DTD/svg11.dtd"><svg t="1711114837377" class="icon" viewBox="0 0 1024 1024" version="1.1" xmlns="http://www.w3.org/2000/svg" p-id="13160" xmlns:xlink="http://www.w3.org/1999/xlink" width="200" height="200"><path d="M731.733333 258.133333l61.866667-66.133333s2.133333 0 2.133333-2.133333c2.133333 0 4.266667 0 6.4-2.133334h10.666667c4.266667 0 8.533333 2.133333 14.933333 6.4 6.4 2.133333 10.666667 6.4 17.066667 12.8 8.533333 8.533333 12.8 17.066667 14.933333 23.466667 2.133333 8.533333 2.133333 14.933333 0 19.2l-4.266666 6.4-61.866667 66.133333-61.866667-64z m-371.2-49.066666h228.266667c19.2 0 38.4 2.133333 59.733333 6.4l-106.666666 106.666666h-209.066667a58.282667 58.282667 0 0 0-57.6 57.6V663.466667a58.282667 58.282667 0 0 0 57.6 57.6h283.733333a58.282667 58.282667 0 0 0 57.6-57.6v-104.533334l113.066667-113.066666v189.866666c0 61.866667-17.066667 110.933333-53.333333 147.2s-83.2 53.333333-145.066667 53.333334h-228.266667c-61.866667 0-110.933333-17.066667-147.2-53.333334-34.133333-34.133333-53.333333-83.2-53.333333-147.2V407.466667c0-61.866667 17.066667-110.933333 53.333333-147.2 36.266667-34.133333 85.333333-51.2 147.2-51.2z m375.466667 168.533333l-206.933333 206.933333-91.733334 27.733334 32-96 202.666667-202.666667 64 64z" p-id="13161" fill="#707070"></path></svg>