<?xml version="1.0" standalone="no"?><!DOCTYPE svg PUBLIC "-//W3C//DTD SVG 1.1//EN" "http://www.w3.org/Graphics/SVG/1.1/DTD/svg11.dtd"><svg t="1711887220884" class="icon" viewBox="0 0 1024 1024" version="1.1" xmlns="http://www.w3.org/2000/svg" p-id="7483" xmlns:xlink="http://www.w3.org/1999/xlink" width="200" height="200"><path d="M832 64H192c-17.7 0-32 14.3-32 32v832c0 17.7 14.3 32 32 32h640c17.7 0 32-14.3 32-32V96c0-17.7-14.3-32-32-32z m-600 72h560v208H232V136z m560 480H232V408h560v208z m0 272H232V680h560v208zM304 240a40 40 0 1 0 80 0 40 40 0 1 0-80 0z m0 272a40 40 0 1 0 80 0 40 40 0 1 0-80 0z m0 272a40 40 0 1 0 80 0 40 40 0 1 0-80 0z" fill="#707070" p-id="7484"></path></svg>